<?xml version="1.0" encoding="UTF-8"?>
<svg width="22px" height="20px" viewBox="0 0 22 20" version="1.1" xmlns="http://www.w3.org/2000/svg" xmlns:xlink="http://www.w3.org/1999/xlink">
    <!-- Generator: Sketch 52 (66869) - http://www.bohemiancoding.com/sketch -->
    <title>comment</title>
    <desc>Created with Sketch.</desc>
    <g id="Page-1" stroke="none" stroke-width="1" fill="none" fill-rule="evenodd">
        <g id="Tips" transform="translate(-1174.000000, -445.000000)" fill="#4A4A4A" fill-rule="nonzero">
            <g id="card" transform="translate(176.000000, 241.000000)">
                <g id="footer-card" transform="translate(286.000000, 200.000000)">
                    <g id="react" transform="translate(631.000000, 0.000000)">
                        <g id="Group-3" transform="translate(81.000000, 0.000000)">
                            <g id="comment" transform="translate(0.000000, 4.000000)">
                                <path d="M19.6013216,0 L2.39867841,0 C1.09030837,0 0,1.06407188 0,2.36300647 L0,13.9479692 C0,15.2421107 1.09030837,16.2965963 2.39867841,16.2965963 L10.7334802,16.2965963 L16.6259912,19.9585374 C16.6986784,20.0016754 16.7762115,20.025641 16.8585903,20.025641 C16.9312775,20.025641 17.0039648,20.0064686 17.0718062,19.9729167 C17.2123348,19.8962269 17.2995595,19.7524334 17.2995595,19.5942605 L17.2995595,16.2965963 L19.6013216,16.2965963 C20.9096916,16.2965963 22,15.2421107 22,13.9479692 L22,2.36300647 C22,1.06407188 20.9096916,0 19.6013216,0 Z M21.1277533,13.9479692 C21.1277533,14.7675921 20.4299559,15.4338354 19.6013216,15.4338354 L16.8585903,15.4338354 C16.6162996,15.4338354 16.4273128,15.62556 16.4273128,15.8652158 L16.4273128,18.8129825 L11.0920705,15.500939 C11.0242291,15.4578009 10.9418502,15.4338354 10.8594714,15.4338354 L2.39867841,15.4338354 C1.57004405,15.4338354 0.872246696,14.7675921 0.872246696,13.9479692 L0.872246696,2.36300647 C0.872246696,1.54338354 1.57004405,0.862760982 2.39867841,0.862760982 L19.6013216,0.862760982 C20.4299559,0.862760982 21.1277533,1.54338354 21.1277533,2.36300647 L21.1277533,13.9479692 Z" id="Shape"></path>
                            </g>
                        </g>
                    </g>
                </g>
            </g>
        </g>
    </g>
</svg>