<svg width="14" height="29" viewBox="0 0 14 29" fill="none" xmlns="http://www.w3.org/2000/svg">
<path d="M3.58049 6.09512C3.58049 6.79656 3.58049 9.92738 3.58049 9.92738H0.935059V14.6135H3.58049V28.5389H9.01476V14.6139H12.6614C12.6614 14.6139 13.0029 12.3669 13.1685 9.9101C12.6938 9.9101 9.03531 9.9101 9.03531 9.9101C9.03531 9.9101 9.03531 7.18388 9.03531 6.70602C9.03531 6.22714 9.62781 5.58297 10.2134 5.58297C10.7979 5.58297 12.0316 5.58297 13.1742 5.58297C13.1742 4.94495 13.1742 2.74045 13.1742 0.704468C11.6488 0.704468 9.91348 0.704468 9.14854 0.704468C3.44616 0.704144 3.58049 5.39491 3.58049 6.09512Z" fill="black"/>
</svg>
