<svg width="17" height="21" viewBox="0 0 17 21" fill="none" xmlns="http://www.w3.org/2000/svg">
<path fill-rule="evenodd" clip-rule="evenodd" d="M2.00927 18.1357C1.89764 18.1357 1.78601 18.0895 1.70229 18.0433C1.45113 17.9047 1.39531 17.6044 1.56275 17.3965L4.57673 13.7699C3.51625 10.0047 4.99533 6.12393 8.3721 3.83707C8.51164 3.76777 8.65117 3.72157 8.84652 3.72157C9.01397 3.74467 9.1535 3.81397 9.23722 3.92947L10.0186 4.89965L10.8 2.95929C10.8837 2.72829 11.107 2.54349 11.3582 2.4511L15.321 0.926524C15.5163 0.857225 15.7117 0.880325 15.8791 0.972723C16.0187 1.06512 16.1303 1.22682 16.1024 1.38852L15.628 5.50024C15.0977 10.074 10.9396 13.6775 5.46976 14.3474L2.48369 17.9278C2.37206 18.0664 2.17671 18.1357 2.00927 18.1357ZM9.68369 6.21634L8.62322 4.89967C6.13948 6.81693 4.96738 9.75058 5.46971 12.7073L8.84648 8.6187C9.01392 8.4108 9.37671 8.3646 9.62788 8.5032C9.87904 8.6418 9.93486 8.94209 9.76741 9.14999L6.36274 13.2386C10.8 12.3377 14.0651 9.24239 14.5116 5.40786L14.8465 2.10462L11.7767 3.2827L10.6604 6.10084C10.6046 6.28564 10.4372 6.40114 10.2139 6.42424C10.0186 6.44734 9.79532 6.35494 9.68369 6.21634Z" fill="#08CEAE"/>
<path fill-rule="evenodd" clip-rule="evenodd" d="M15.6279 19.5679H0.558139C0.251163 19.5679 0 19.7758 0 20.0299C0 20.284 0.251163 20.4919 0.558139 20.4919H15.6279C15.9349 20.4919 16.186 20.284 16.186 20.0299C16.186 19.7758 15.9349 19.5679 15.6279 19.5679Z" fill="#08CEAE"/>
</svg>
