<svg width="36" height="25" viewBox="0 0 36 25" fill="none" xmlns="http://www.w3.org/2000/svg">
<path d="M31.4833 10.2666V5.55603H29.2833V10.2666H24.8833V12.6219H29.2833V17.3324H31.4833V12.6219H35.8833V10.2666H31.4833Z" fill="black"/>
<path d="M11.6836 10.2665V14.9769H17.9074C16.9988 17.7184 14.5524 19.6874 11.6836 19.6874C8.04479 19.6874 5.08359 16.5172 5.08359 12.6217C5.08359 8.72616 8.04479 5.55603 11.6836 5.55603C13.261 5.55603 14.779 6.16132 15.9582 7.26121L18.849 3.70953C16.869 1.86304 14.3258 0.845581 11.6836 0.845581C5.61819 0.845581 0.683594 6.12835 0.683594 12.6217C0.683594 19.1151 5.61819 24.3978 11.6836 24.3978C17.749 24.3978 22.6836 19.1151 22.6836 12.6217V10.2665H11.6836Z" fill="black"/>
</svg>
