<svg width="25" height="27" viewBox="0 0 25 27" fill="none" xmlns="http://www.w3.org/2000/svg">
<path d="M15.1212 10.7365C14.8369 10.4303 14.5217 10.159 14.1814 9.92731C13.2801 9.30942 12.2322 8.98109 11.1619 8.98109C9.67642 8.97813 8.25126 9.61001 7.20267 10.7365L2.1156 16.1868C1.06879 17.3096 0.480431 18.8309 0.479493 20.4173C0.477525 23.7277 2.98263 26.413 6.07487 26.4151C7.5581 26.4206 8.98195 25.7918 10.0302 24.6683L14.2294 20.1728C14.3057 20.0918 14.3483 19.9813 14.3477 19.8663C14.3464 19.6299 14.1663 19.4393 13.9454 19.4406H13.7855C12.9081 19.444 12.0386 19.2636 11.226 18.9098C11.0762 18.8438 10.9041 18.881 10.7901 19.0039L7.7706 22.2407C6.83299 23.2445 5.31283 23.2445 4.37522 22.2407C3.43761 21.2369 3.43761 19.6095 4.37522 18.6058L9.4823 13.1427C10.4192 12.1409 11.9368 12.1409 12.8737 13.1427C13.5051 13.7788 14.4899 13.7788 15.1213 13.1427C15.3929 12.8516 15.5576 12.4656 15.5852 12.0552C15.6144 11.5647 15.4454 11.0844 15.1212 10.7365Z" fill="black"/>
<path d="M22.8357 2.47728C20.6491 0.136317 17.1039 0.136317 14.9172 2.47728L10.722 6.96428C10.6068 7.08821 10.5735 7.27461 10.638 7.43527C10.7017 7.59638 10.8505 7.69978 11.0139 7.69642H11.1619C12.0382 7.69472 12.9063 7.8765 13.7174 8.23163C13.8671 8.29761 14.0392 8.26038 14.1533 8.13745L17.1647 4.91774C18.1023 3.91396 19.6225 3.91396 20.5601 4.91774C21.4977 5.92152 21.4977 7.54896 20.5601 8.55274L16.8088 12.5645L16.7768 12.603L15.465 13.9988C14.5282 15.0005 13.0105 15.0005 12.0736 13.9988C11.4423 13.3627 10.4574 13.3627 9.82607 13.9988C9.5527 14.2921 9.38787 14.6815 9.36214 15.0949C9.3329 15.5853 9.50185 16.0656 9.82607 16.4136C10.289 16.9113 10.8306 17.3171 11.4258 17.6124C11.5097 17.6552 11.5937 17.6895 11.6777 17.728C11.7617 17.7665 11.8497 17.7965 11.9336 17.8307C12.0176 17.865 12.1056 17.895 12.1896 17.9207L12.4256 17.9891C12.5855 18.0319 12.7455 18.0662 12.9095 18.0962C13.1069 18.1276 13.3058 18.1476 13.5054 18.1561H13.7853H13.8093L14.0492 18.1262C14.1372 18.1219 14.2292 18.1005 14.3332 18.1005H14.4692L14.7451 18.0577L14.8731 18.032L15.105 17.9806H15.1491C16.1314 17.7165 17.0284 17.1719 17.7446 16.405L22.8356 10.9547C25.0224 8.6137 25.0224 4.81825 22.8357 2.47728Z" fill="black"/>
</svg>
