<svg width="30" height="25" viewBox="0 0 30 25" fill="none" xmlns="http://www.w3.org/2000/svg">
<path d="M29.0866 3.22372C28.0445 3.71809 26.9262 4.05337 25.7513 4.20306C26.951 3.43398 27.8693 2.21412 28.3045 0.765025C27.1792 1.47724 25.9371 1.9944 24.6136 2.27474C23.5538 1.06434 22.0463 0.310425 20.3742 0.310425C17.1663 0.310425 14.5654 3.09494 14.5654 6.52727C14.5654 7.01407 14.6167 7.48952 14.7158 7.94417C9.88897 7.68462 5.60889 5.20889 2.74429 1.44693C2.24355 2.36375 1.95869 3.43205 1.95869 4.57241C1.95869 6.72995 2.98493 8.63365 4.54198 9.74741C3.59005 9.71334 2.69474 9.43299 1.91094 8.967V9.04466C1.91094 12.0565 3.91387 14.5701 6.56966 15.1422C6.08308 15.2824 5.56998 15.36 5.03916 15.36C4.66408 15.36 4.30135 15.3203 3.9457 15.2445C4.68527 17.7164 6.82977 19.514 9.3706 19.5633C7.38358 21.2302 4.87816 22.2209 2.15689 22.2209C1.68803 22.2209 1.22619 22.1906 0.771484 22.1357C3.34238 23.903 6.39454 24.9335 9.67494 24.9335C20.3601 24.9335 26.2008 15.4585 26.2008 7.24142L26.1813 6.43638C27.3226 5.56497 28.3098 4.47013 29.0866 3.22372Z" fill="#010002"/>
</svg>
